<?xml version="1.0" ?><svg height="128" width="128" xmlns="http://www.w3.org/2000/svg"><path d="M64 0c35.346 0 64 28.654 64 64 0 35.347-28.654 64-64 64-35.346 0-64-28.653-64-64 0-35.346 28.654-64 64-64z" fill="#334D5D"/><path d="M30 31h68c1.657 0 3 1.343 3 3v60c0 1.657-1.343 3.001-3 3.001h-68c-1.657 0-3-1.344-3-3.001v-60c0-1.656 1.343-3 3-3z" fill="#DF5A48"/><path d="M64 35c-16.016 0-29 12.984-29 29 0 16.017 12.984 29 29 29 16.017 0 29-12.983 29-28.999 0-16.017-12.983-29.001-29-29.001zm0 48c-10.493 0-19-8.506-19-18.999 0-10.494 8.507-19 19-19 10.494 0 19 8.506 19 19 0 10.493-8.506 18.999-19 18.999z" fill="#ECF0F0"/><polygon fill="#BEC3C6" points="67,39 65,39 65,37.001 63,37.001 63,39 61,39 61,41 63,41 63,43 65,43 65,41 67,41"/><path d="M61 87h6v2.001h-6v-2.001z" fill="#BEC3C6"/><path d="M39 64.001l4 2.999v-5.999l-4 3zm-1-3v5.999h1v-5.999h-1z" fill="#BEC3C6"/><path d="M85 67l4-2.999-4-3v5.999zm4-5.999v5.999h1v-5.999h-1z" fill="#BEC3C6"/><path d="M61 67l4-2.999-4-3v5.999zm4-2.999v2.999h1v-5.999h-1v3zm2-3v5.999h1v-5.999h-1z" fill="#fff"/></svg>