<?xml version="1.0" ?><svg height="128" width="128" xmlns="http://www.w3.org/2000/svg" xmlns:xlink="http://www.w3.org/1999/xlink"><path d="M64 0c35.347 0 64 28.654 64 64 0 35.347-28.653 64-64 64-35.346 0-64-28.653-64-64 0-35.346 28.654-64 64-64z" fill="#EBEEEE"/><defs><path d="M64 0c35.347 0 64 28.654 64 64 0 35.347-28.653 64-64 64-35.346 0-64-28.653-64-64 0-35.346 28.654-64 64-64z" id="a"/></defs><clipPath id="b"><use overflow="visible" xlink:href="#a"/></clipPath><g clip-path="url(#b)"><path d="M31 31h66v119h-66v-119z" fill="#2CA4D5"/><path d="M38 34h52c2.209 0 4 1.791 4 4v105c0 2.209-1.791 4-4 4h-52c-2.209 0-4-1.791-4-4v-105c0-2.209 1.791-4 4-4z" fill="#2D4453"/><path d="M39 45h50v85h-50v-85z" fill="#3B5766"/><path d="M59 39h10v2h-10v-2z" fill="#263B48"/><path d="M62 135h2v-2h-2v2zm25.5-1c-.828 0-1.5.672-1.5 1.5s.672 1.5 1.5 1.5 1.5-.672 1.5-1.5-.672-1.5-1.5-1.5zm-47 0c-.828 0-1.5.672-1.5 1.5s.672 1.5 1.5 1.5 1.5-.672 1.5-1.5-.672-1.5-1.5-1.5zm24.5 1h2v-2h-2v2zm0 3h2v-2h-2v2zm-3 0h2v-2h-2v2z" fill="#65747F"/></g></svg>