<?xml version="1.0" ?><svg height="128" width="128" xmlns="http://www.w3.org/2000/svg" xmlns:xlink="http://www.w3.org/1999/xlink"><path d="M64 0c35.346 0 64 28.654 64 64 0 35.347-28.654 64-64 64s-64-28.653-64-64c0-35.346 28.654-64 64-64z" fill="#334D5D"/><path d="M69 43h31l-8 22.43 8 22.571h-31v-45.001z" fill="#DBB432"/><defs><path d="M69 43h31l-8 22.43 8 22.571h-31v-45.001z" id="a"/></defs><clipPath id="b"><use overflow="visible" xlink:href="#a"/></clipPath><path clip-path="url(#b)" d="M69 43v5h31v-5h-31zm0 45.001h31v-5.001h-31v5.001z" fill="#CD4838"/><path d="M76 83h-7v5.001l7-5.001z" fill="#AE3C2E"/><path d="M40 38h36v45h-36v-45z" fill="#EFC84A"/><path d="M40 38v5h36v-5h-36zm0 45h36v-5h-36v5z" fill="#DF5A48"/><defs><path d="M64 0c35.346 0 64 28.654 64 64 0 35.347-28.654 64-64 64s-64-28.653-64-64c0-35.346 28.654-64 64-64z" id="c"/></defs><clipPath id="d"><use overflow="visible" xlink:href="#c"/></clipPath><g clip-path="url(#d)"><path d="M36 37c-1.104 0-2 .896-2 2v89h4v-89c0-1.104-.896-2-2-2z" fill="#ECF0F0"/><path d="M36 37v91h2v-89c0-1.104-.896-2-2-2z" fill="#D5D9D9"/></g></svg>