<?xml version="1.0" ?><svg height="128" width="128" xmlns="http://www.w3.org/2000/svg"><path d="M64 0c35.346 0 64 28.654 64 64 0 35.345-28.654 64-64 64s-64-28.654-64-64c0-35.346 28.654-64 64-64z" fill="#DF5A48"/><path d="M108 87v2c0 1.656-1.343 3-3 3h-82c-1.657 0-3-1.344-3-3v-2h88z" fill="#CCD0D2"/><path d="M59.5 86h9c.828 0 1.5.672 1.5 1.5s-.672 1.5-1.5 1.5h-9c-.828 0-1.5-.672-1.5-1.5s.672-1.5 1.5-1.5z" fill="#B3B7B9"/><path d="M32 37h64c2.209 0 4 1.791 4 4v46h-72v-46c0-2.209 1.791-4 4-4z" fill="#2B414F"/><path d="M33 42h62v40h-62v-40z" fill="#3B5766"/><path d="M59 84h10v1h-10v-1z" fill="#3B5766"/></svg>