<?xml version="1.0" ?><svg height="128" width="128" xmlns="http://www.w3.org/2000/svg"><path d="M64 0c35.346 0 64 28.654 64 64 0 35.347-28.654 64-64 64s-64-28.653-64-64c0-35.346 28.654-64 64-64z" fill="#DF5A48"/><path d="M67.465 72.536l5.07-5.071 24.001 24-5.071 5.071-24-24z" fill="#F5F5F5"/><path d="M100.203 97.875l-2.829 2.828c-1.952 1.953-5.118 1.953-7.07 0l-16.507-16.506c-1.952-1.953-1.952-5.118 0-7.071l2.829-2.828c1.952-1.953 5.118-1.953 7.07 0l16.507 16.506c1.952 1.953 1.952 5.119 0 7.071z" fill="#EFC84A"/><path d="M52.5 26c14.636 0 26.5 11.865 26.5 26.501 0 14.635-11.864 26.5-26.5 26.5s-26.5-11.865-26.5-26.5c0-14.636 11.864-26.501 26.5-26.501z" fill="#fff"/><path d="M52.5 32c11.322 0 20.5 9.178 20.5 20.5s-9.178 20.5-20.5 20.5-20.5-9.178-20.5-20.499c0-11.322 9.178-20.501 20.5-20.501z" fill="#2CA4D5"/><path d="M52 54c6.075 0 11 3.134 11 7s-4.925 7-11 7-11-3.135-11-7 4.925-7 11-7z" fill="#66B6DE"/><path d="M52.5 36c10.647 0 19.393 8.118 20.399 18.5.063-.659.101-1.325.101-2 0-11.321-9.178-20.5-20.5-20.5s-20.5 9.179-20.5 20.501c0 .675.037 1.341.101 2 1.006-10.383 9.752-18.501 20.399-18.501z" fill="#2084AB"/><path d="M100.203 97.875c.906-.906 1.373-2.075 1.438-3.263-1.059.064-2.1.483-2.908 1.292l-2.828 2.828c-.925.925-1.35 2.15-1.301 3.361 1.014-.156 1.99-.609 2.771-1.391l2.828-2.827z" fill="#D2AF40"/></svg>