<?xml version="1.0" ?><svg height="128" width="128" xmlns="http://www.w3.org/2000/svg"><path d="M64 0c35.345 0 64 28.654 64 64 0 35.347-28.654 64-64 64-35.345 0-64-28.653-64-64 0-35.346 28.655-64 64-64z" fill="#EBEEEE"/><path d="M68 90v18c0 1.104-.895 2-2 2h-4c-1.104 0-2-.896-2-2v-18h8z" fill="#D89F35"/><path d="M60 90h8v6h-8v-6z" fill="#AE7F28"/><path d="M64 20c-12.703 0-23 10.298-23 23v39c0 4.418 3.582 8 8 8h30c4.418 0 8-3.582 8-8v-39c0-12.702-10.297-23-23-23z" fill="#DF5A48"/><path d="M41 52h46v8h-46v-8z" fill="#EFC84A"/><path d="M55.5 33c-2.485 0-4.5 2.015-4.5 4.5v38c0 2.485 2.015 4.5 4.5 4.5s4.5-2.015 4.5-4.5v-38c0-2.485-2.014-4.5-4.5-4.5zm17 0c-2.484 0-4.5 2.015-4.5 4.5v38c0 2.485 2.016 4.5 4.5 4.5 2.486 0 4.5-2.015 4.5-4.5v-38c0-2.485-2.014-4.5-4.5-4.5z" fill="#C95140"/><path d="M55.5 33c-2.485 0-4.5 2.015-4.5 4.5v38c0 2.485 2.015 4.5 4.5 4.5s4.5-2.015 4.5-4.5v-38c0-2.485-2.014-4.5-4.5-4.5zm17 0c-2.484 0-4.5 2.015-4.5 4.5v38c0 2.485 2.016 4.5 4.5 4.5 2.486 0 4.5-2.015 4.5-4.5v-38c0-2.485-2.014-4.5-4.5-4.5z" fill="#C95140"/><path d="M41 82c0 4.418 3.582 8 8 8h30c4.418 0 8-3.582 8-8v-22h-46v22z" fill="#45B39C"/><path d="M55.5 80c2.485 0 4.5-2.015 4.5-4.5v-15.5h-9v15.5c0 2.485 2.015 4.5 4.5 4.5zm12.5-20v15.5c0 2.485 2.016 4.5 4.5 4.5 2.486 0 4.5-2.015 4.5-4.5v-15.5h-9z" fill="#3CA18C"/><g fill="#D7B442"><rect height="8" width="9" x="68" y="52"/><rect height="8" width="9" x="51" y="52"/></g></svg>