<?xml version="1.0" ?><svg height="128" width="128" xmlns="http://www.w3.org/2000/svg" xmlns:xlink="http://www.w3.org/1999/xlink"><path d="M64 0c35.346 0 64 28.654 64 64 0 35.347-28.653 64-64 64s-64-28.653-64-64c0-35.346 28.654-64 64-64z" fill="#E27C3F"/><path d="M34 51h60c1.658 0 3 1.343 3 3v44c0 1.656-1.342 3-3 3h-60c-1.657 0-3-1.344-3-3v-44c0-1.656 1.344-3 3-3z" fill="#EFC84A"/><path d="M34 50h60c1.658 0 3 1.343 3 3v4c0 1.657-1.342 3-3 3h-60c-1.657 0-3-1.343-3-3v-4c0-1.656 1.344-3 3-3z" fill="#D7B442"/><path d="M43.084 52c-3.038 0-6.084 1.344-6.084 3s3.046 3 6.083 3 5.917-1.343 5.917-3-2.878-3-5.916-3zm42 0c-3.037 0-6.084 1.344-6.084 3s3.047 3 6.084 3 5.916-1.343 5.916-3-2.879-3-5.916-3z" fill="#796320"/><path d="M64 22c-13.807 0-25 11.249-25 25.125v7.836h.239c.583.601 2.206 1.039 3.761 1.039 1.555 0 3.177-.437 3.76-1.038h.24v-6.837c0-10.563 7.06-18.125 17-18.125s17 7.562 17 18.125v6.843h.242c.58.599 2.178 1.032 3.727 1.032s3.186-.433 3.781-1.031h.25v-7.844c0-13.876-11.193-25.125-25-25.125z" fill="#fff"/><path d="M68 77.118c0-2.274-1.791-4.117-4-4.117s-4 1.843-4 4.117c0 1.489.775 2.782 1.926 3.505l-1.125 6.377h6.4l-1.127-6.377c1.151-.723 1.926-2.016 1.926-3.505z" fill="#553E00"/><defs><path d="M64 22c-13.807 0-25 11.249-25 25.125v7.836h.239c.583.601 2.206 1.039 3.761 1.039 1.555 0 3.177-.437 3.76-1.038h.24v-6.837c0-10.563 7.06-18.125 17-18.125s17 7.562 17 18.125v6.843h.242c.58.599 2.178 1.032 3.727 1.032s3.186-.433 3.781-1.031h.25v-7.844c0-13.876-11.193-25.125-25-25.125z" id="a"/></defs><clipPath id="b"><use overflow="visible" xlink:href="#a"/></clipPath><path clip-path="url(#b)" d="M64 26c11.598 0 21 9.906 21 22.125v14.75c0 12.22-9.401 22.125-21 22.125-11.598 0-21-9.905-21-22.125v-14.75c0-12.219 9.403-22.125 21-22.125z" fill="#E6E6E6"/><path d="M94 60h-60c-1.657 0-3-1.343-3-3v1c0 1.657 1.343 3 3 3h60c1.658 0 3-1.343 3-3v-1c0 1.657-1.342 3-3 3z" fill="#F2D067"/></svg>