<?xml version="1.0" ?><svg height="128" width="128" xmlns="http://www.w3.org/2000/svg" xmlns:xlink="http://www.w3.org/1999/xlink"><path d="M64 0c35.346 0 64 28.654 64 64 0 35.346-28.654 64-64 64-35.346 0-64-28.654-64-64 0-35.346 28.654-64 64-64z" fill="#E27C3F"/><path d="M62.181 25.593l-.405.914 28.494 10.663.406-.914-28.495-10.663zm-30.169 11.479l.408.943 28.587-11.072-.407-.943-28.588 11.072z" fill="#A14B16"/><path d="M62 24c1.656 0 3 1.343 3 3s-1.344 3-3 3-3-1.343-3-3 1.344-3 3-3z" fill="#EFC84A"/><path d="M27 35h74c1.657 0 3 1.343 3 3v54c0 1.656-1.343 3-3 3h-74c-1.656 0-3-1.344-3-3v-54c0-1.657 1.344-3 3-3z" fill="#fff"/><path d="M31 39h66c1.657 0 3 1.343 3 3v46c0 1.656-1.343 3-3 3h-66c-1.656 0-3-1.344-3-3v-46c0-1.657 1.344-3 3-3z" fill="#2CA4D5"/><path d="M27.938 91.088l-.028-8.801 10.27-10.287 18.82 18.91-29.062.178z" fill="#F7F7F7"/><path d="M39.524 81.424l-1.344-9.424 18.82 18.848-19.309.139s-1.514-1.51-1.574-1.521c.213-.064 3.407-8.042 3.407-8.042z" fill="#DFDFDF"/><path d="M42.115 91.01l31.885-32.01 25.965 25.902.035 6.036-57.885.072z" fill="#F7F7F7"/><path d="M76 73l-2-14 25.98 25.98.02 6.02-23.008-.031s-5.898-5.988-6.062-6.023c.317-.092 5.07-11.946 5.07-11.946z" fill="#DFDFDF"/><defs><path d="M31 39h66c1.657 0 3 1.343 3 3v46c0 1.656-1.343 3-3 3h-66c-1.656 0-3-1.344-3-3v-46c0-1.657 1.344-3 3-3z" id="a"/></defs><clipPath id="b"><use overflow="visible" xlink:href="#a"/></clipPath><g clip-path="url(#b)"><circle cx="33.5" cy="42.5" fill="#68B7DF" r="24.5"/><circle cx="34" cy="43" fill="#FBDA6E" r="11"/></g><path d="M62 30c-1.484 0-2.71-1.082-2.95-2.5-.027.164-.05.329-.05.5 0 1.657 1.344 3 3 3s3-1.343 3-3c0-.171-.022-.336-.051-.5-.239 1.418-1.465 2.5-2.949 2.5z" fill="#B86431"/></svg>