<?xml version="1.0" ?><svg height="128" width="128" xmlns="http://www.w3.org/2000/svg"><path d="M64 0c35.346 0 64 28.654 64 64 0 35.347-28.654 64-64 64-35.346 0-64-28.653-64-64 0-35.346 28.654-64 64-64z" fill="#EFC84A"/><path d="M89 31h-50c-2.761 0-5 2.238-5 5v62c0 1.657 1.343 3 3 3h54c1.656 0 3-1.343 3-3v-62c0-2.762-2.238-5-5-5z" fill="#334D5D"/><path d="M89 31h-50c-2.761 0-5 2.238-5 5v5h10v10h-10v10h10v10h-10v10h10v10h-10v7c0 1.657 1.343 3 3 3h54c1.656 0 3-1.343 3-3v-7h-10v-10h10v-10h-10v-10h10v-10h-10v-10h10v-5c0-2.762-2.238-5-5-5zm-15 60h-20v-10h20v10zm0-20h-20v-10h20v10zm0-20h-20v-10h20v10z" fill="#35718D"/><path d="M63 36h2v65h-2v-65z" fill="#2A404E"/><g fill="#3485AA"><rect height="10" width="10" x="44" y="51"/><rect height="10" width="10" x="74" y="71"/><rect height="10" width="10" x="44" y="71"/><rect height="10" width="10" x="74" y="31"/><rect height="10" width="10" x="74" y="91"/><rect height="10" width="10" x="44" y="91"/><rect height="10" width="10" x="44" y="31"/><rect height="10" width="10" x="74" y="51"/></g><g fill="#2D5F78"><rect height="10" width="2" x="63" y="51"/><rect height="5" width="2" x="63" y="36"/><rect height="10" width="2" x="63" y="91"/><rect height="10" width="2" x="63" y="71"/></g><path d="M64.5 48c.828 0 1.5-.672 1.5-1.5s-.672-1.5-1.5-1.5c-.829 0-1.5.672-1.5 1.5s.671 1.5 1.5 1.5zm0 7c-.829 0-1.5.672-1.5 1.5s.671 1.5 1.5 1.5c.828 0 1.5-.672 1.5-1.5s-.672-1.5-1.5-1.5zm0 10c-.829 0-1.5.672-1.5 1.5s.671 1.5 1.5 1.5c.828 0 1.5-.672 1.5-1.5s-.672-1.5-1.5-1.5zm0 10c-.829 0-1.5.672-1.5 1.5s.671 1.5 1.5 1.5c.828 0 1.5-.672 1.5-1.5s-.672-1.5-1.5-1.5zm0 10c-.829 0-1.5.672-1.5 1.5s.671 1.5 1.5 1.5c.828 0 1.5-.672 1.5-1.5s-.672-1.5-1.5-1.5zm0 10c-.829 0-1.5.672-1.5 1.5 0 .829.671 1.5 1.5 1.5.828 0 1.5-.671 1.5-1.5 0-.828-.672-1.5-1.5-1.5z" fill="#EBEEEE"/><path d="M64.5 48c.828 0 1.5-.672 1.5-1.5s-.672-1.5-1.5-1.5c-.829 0-1.5.672-1.5 1.5s.671 1.5 1.5 1.5zm0 7c-.829 0-1.5.672-1.5 1.5s.671 1.5 1.5 1.5c.828 0 1.5-.672 1.5-1.5s-.672-1.5-1.5-1.5zm0 10c-.829 0-1.5.672-1.5 1.5s.671 1.5 1.5 1.5c.828 0 1.5-.672 1.5-1.5s-.672-1.5-1.5-1.5zm0 10c-.829 0-1.5.672-1.5 1.5s.671 1.5 1.5 1.5c.828 0 1.5-.672 1.5-1.5s-.672-1.5-1.5-1.5zm0 10c-.829 0-1.5.672-1.5 1.5s.671 1.5 1.5 1.5c.828 0 1.5-.672 1.5-1.5s-.672-1.5-1.5-1.5zm0 10c-.829 0-1.5.672-1.5 1.5 0 .829.671 1.5 1.5 1.5.828 0 1.5-.671 1.5-1.5 0-.828-.672-1.5-1.5-1.5z" fill="#EBEEEE"/><path d="M79 24l-11 9 8 8 10-10-7-7zm-37 7l10 10 8-8-11-9-7 7z" fill="#2CA4D5"/><path d="M49 24h30l-15 15-15-15z" fill="#3B5766"/><polygon fill="#354D5B" points="72,31 79,24 49,24 56,31"/></svg>