<?xml version="1.0" ?><svg height="128" width="128" xmlns="http://www.w3.org/2000/svg" xmlns:xlink="http://www.w3.org/1999/xlink"><path d="M64 0c35.347 0 64 28.654 64 64 0 35.347-28.653 64-64 64-35.346 0-64-28.653-64-64 0-35.346 28.654-64 64-64z" fill="#E27C3F"/><defs><path d="M64 0c35.347 0 64 28.654 64 64 0 35.347-28.653 64-64 64-35.346 0-64-28.653-64-64 0-35.346 28.654-64 64-64z" id="a"/></defs><clipPath id="b"><use overflow="visible" xlink:href="#a"/></clipPath><g clip-path="url(#b)"><path d="M46 31h36c8.284 0 15 2.716 15 11v97c0 8.284-6.716 11-15 11h-36c-8.284 0-15-2.716-15-11v-97c0-8.284 6.716-11 15-11z" fill="#EBEEEE"/><path d="M55.5 141h18c1.381 0 2.5 1.119 2.5 2.5s-1.119 2.5-2.5 2.5h-18c-1.381 0-2.5-1.119-2.5-2.5s1.119-2.5 2.5-2.5z" fill="#D3D5D6"/><path d="M34 45h60v92h-60v-92z" fill="#3B5766"/><path d="M58 37h12c.553 0 1 .447 1 1s-.447 1-1 1h-12c-.553 0-1-.447-1-1s.447-1 1-1z" fill="#A5A7A7"/><path d="M77 37c-.553 0-1 .447-1 1s.447 1 1 1 1-.447 1-1-.447-1-1-1zm4 0c-.553 0-1 .447-1 1s.447 1 1 1 1-.447 1-1-.447-1-1-1zm5-1c-1.104 0-2 .896-2 2s.896 2 2 2 2-.896 2-2-.896-2-2-2z" fill="#2D4453"/></g></svg>