<?xml version="1.0" ?><svg height="128" width="128" xmlns="http://www.w3.org/2000/svg" xmlns:xlink="http://www.w3.org/1999/xlink"><path d="M64 0c35.346 0 64 28.654 64 64s-28.654 64-64 64-64-28.654-64-64 28.654-64 64-64z" fill="#DF5A48"/><path d="M24 38h80c1.656 0 3 1.343 3 3v46c0 1.657-1.344 3-3 3h-80c-1.656 0-3-1.343-3-3v-45.999c0-1.657 1.344-3.001 3-3.001z" fill="#fff"/><path d="M37 78h54c1.104 0 2 .896 2 2l2 10h-62l2-10c0-1.104.896-2 2-2z" fill="#E7E7E7"/><defs><path d="M37 78h54c1.104 0 2 .896 2 2l2 10h-62l2-10c0-1.104.896-2 2-2z" id="a"/></defs><clipPath id="b"><use overflow="visible" xlink:href="#a"/></clipPath><path clip-path="url(#b)" d="M33 77.001v.999h63v-.999h-63zm0 2.999h63v-1h-63v1zm0 2h63v-1h-63v1zm0 2h63v-1h-63v1zm0 2h63v-1h-63v1zm0 4h63v-1h-63v1zm0-2h63v-1h-63v1z" fill="#D4D4D4"/><path d="M73 85h3v-3h-3v3zm-21 0h3v-3h-3v3zm31-2c-1.104 0-2 .896-2 2 0 1.105.896 2 2 2s2-.895 2-2c0-1.104-.896-2-2-2zm-38 0c-1.104 0-2 .896-2 2 0 1.105.896 2 2 2s2-.895 2-2c0-1.104-.896-2-2-2z" fill="#676767"/><path d="M29 43h70c1.104 0 2 .896 2 2v28c0 1.105-.896 2-2 2h-70c-1.104 0-2-.895-2-2v-28c0-1.104.896-2 2-2z" fill="#EFC84A"/><path d="M39 46h49v1h-49v-1z" fill="#DCDFE0"/><path d="M39 54h50c1.104 0 2 .896 2 2v12c0 1.105-.896 2-2 2h-50c-1.104 0-2-.895-2-2v-12c0-1.104.896-2 2-2z" fill="#fff"/><path clip-rule="evenodd" d="M57 57h14c1.104 0 2 .896 2 2v6c0 1.105-.896 2.001-2 2.001h-14c-1.104 0-2-.896-2-2.001v-6c0-1.104.896-2 2-2z" fill="#F8F2EF" fill-rule="evenodd"/><defs><path d="M47 49c-7.18 0-13 5.82-13 13s5.82 13 13 13 13-5.819 13-13c0-7.179-5.82-13-13-13zm32 0c-7.18 0-13 5.82-13 13s5.82 13 13 13 13-5.819 13-13c0-7.179-5.82-13-13-13z" id="c"/></defs><clipPath id="d"><use overflow="visible" xlink:href="#c"/></clipPath><path clip-path="url(#d)" d="M57 57h14c1.104 0 2 .896 2 2v6c0 1.105-.896 2.001-2 2.001h-14c-1.104 0-2-.896-2-2.001v-6c0-1.104.896-2 2-2z" fill="#334D5D"/><path clip-rule="evenodd" d="M71 57h-14c-1.104 0-2 .896-2 2v2c0-1.104.896-2 2-2h14c1.104 0 2 .896 2 2v-2c0-1.104-.896-2-2-2z" fill="#D3CFCC" fill-rule="evenodd"/><defs><path d="M47 49c-7.18 0-13 5.82-13 13s5.82 13 13 13 13-5.819 13-13c0-7.179-5.82-13-13-13zm32 0c-7.18 0-13 5.82-13 13s5.82 13 13 13 13-5.819 13-13c0-7.179-5.82-13-13-13z" id="e"/></defs><clipPath id="f"><use overflow="visible" xlink:href="#e"/></clipPath><path clip-path="url(#f)" clip-rule="evenodd" d="M71 57h-14c-1.104 0-2 .896-2 2v2c0-1.104.896-2 2-2h14c1.104 0 2 .896 2 2v-2c0-1.104-.896-2-2-2z" fill="#2A404E" fill-rule="evenodd"/><path d="M99 43h-70c-1.017 0-1.847.762-1.975 1.744.001 2.073-.025 5.256-.025 5.256h74s-.02-3.123-.02-5.197c-.1-1.01-.943-1.803-1.98-1.803z" fill="#45B39C"/><path d="M64 80c-1.104 0-2 .896-2 2 0 1.105.896 2 2 2s2-.895 2-2c0-1.104-.896-2-2-2zm39.5 5c-.828 0-1.5.672-1.5 1.5 0 .829.672 1.5 1.5 1.5s1.5-.671 1.5-1.5c0-.828-.672-1.5-1.5-1.5zm0-42c.828 0 1.5-.671 1.5-1.5 0-.828-.672-1.5-1.5-1.5s-1.5.671-1.5 1.5.672 1.5 1.5 1.5zm-79-3c-.828 0-1.5.671-1.5 1.5s.672 1.5 1.5 1.5 1.5-.671 1.5-1.5c0-.828-.672-1.5-1.5-1.5zm0 45c-.828 0-1.5.672-1.5 1.5 0 .829.672 1.5 1.5 1.5s1.5-.671 1.5-1.5c0-.828-.672-1.5-1.5-1.5z" fill="#ACACAC"/><path d="M99 43h-70c-1.104 0-2 .896-2 2v28c0 1.105.896 2 2 2h70c1.104 0 2-.895 2-2v-28c0-1.104-.896-2-2-2zm1 30c0 .552-.448 1-1 1h-70c-.552 0-1-.448-1-1v-28c0-.552.448-1 1-1h70c.552 0 1 .449 1 1v28z" fill="#E2BE46"/><path d="M99 43h-70c-1.017 0-1.847.762-1.975 1.744.001 2.073-.025 5.256-.025 5.256h1v-5c0-.552.448-1 1-1h70c.552 0 1 .449 1 1v5h1s-.02-3.123-.02-5.197c-.1-1.01-.943-1.803-1.98-1.803z" fill="#41AA94"/><circle cx="82" cy="62.001" fill="#E6E6E6" r="4.252"/><path d="M85.172 65.836c.243-.201.465-.423.666-.667l.11-.133c.499-.648.841-1.415.974-2.259.045-.253.078-.51.078-.777s-.033-.523-.078-.777c-.133-.844-.475-1.611-.975-2.259l-.107-.13c-.202-.246-.426-.469-.672-.672l-.133-.11c-.647-.499-1.414-.841-2.258-.974-.254-.044-.51-.078-.777-.078s-.523.033-.777.078c-.844.133-1.61.475-2.258.974l-.133.11c-.246.203-.47.426-.672.672l-.107.13c-.5.648-.842 1.415-.975 2.259-.045.254-.078.511-.078.777s.033.523.078.777c.133.844.475 1.61.974 2.259l.11.133c.201.244.423.466.666.667l.138.114c.145.111.292.216.448.311.545.331 1.153.559 1.809.662.253.045.511.078.777.078s.524-.033.777-.078c.655-.104 1.264-.331 1.809-.662.156-.095.304-.199.448-.311l.138-.114zm-2.567.355l-.605-.605-.605.605c-.741-.105-1.414-.399-1.98-.837v-.769h-.768c-.438-.565-.73-1.239-.838-1.98l.605-.605-.605-.605c.107-.741.4-1.415.838-1.981h.768v-.768c.566-.438 1.239-.731 1.98-.837l.605.606.605-.605c.741.106 1.414.4 1.98.837v.768h.768c.438.566.73 1.24.838 1.981l-.605.604.605.605c-.107.741-.4 1.415-.838 1.98h-.768v.769c-.565.438-1.238.732-1.98.837z" fill="#334D5D"/><circle cx="46" cy="62.001" fill="#E6E6E6" r="4.252"/><path d="M49.172 65.836c.243-.201.465-.423.666-.667l.11-.133c.499-.648.841-1.415.974-2.259.045-.253.078-.51.078-.777s-.033-.523-.078-.777c-.133-.844-.475-1.611-.975-2.259l-.107-.13c-.202-.246-.426-.469-.672-.672l-.133-.11c-.647-.499-1.414-.841-2.258-.974-.254-.044-.51-.078-.777-.078s-.523.033-.777.078c-.844.133-1.61.475-2.258.974l-.133.11c-.246.203-.47.426-.672.672l-.107.13c-.5.648-.842 1.415-.975 2.259-.045.254-.078.511-.078.777s.033.523.078.777c.133.844.475 1.61.974 2.259l.11.133c.201.244.423.466.666.667l.138.114c.145.111.292.216.448.311.545.331 1.153.559 1.809.662.253.045.511.078.777.078s.524-.033.777-.078c.655-.104 1.264-.331 1.809-.662.156-.095.304-.199.448-.311l.138-.114zm-2.567.355l-.605-.605-.605.605c-.741-.105-1.414-.399-1.98-.837v-.769h-.768c-.438-.565-.73-1.239-.838-1.98l.605-.605-.605-.605c.107-.741.4-1.415.838-1.981h.768v-.768c.566-.438 1.239-.731 1.98-.837l.605.606.605-.605c.741.106 1.414.4 1.98.837v.768h.768c.438.566.73 1.24.838 1.981l-.605.604.605.605c-.107.741-.4 1.415-.838 1.98h-.768v.769c-.565.438-1.238.732-1.98.837z" fill="#334D5D"/></svg>