<?xml version="1.0" ?><svg height="128" width="128" xmlns="http://www.w3.org/2000/svg"><path d="M64 0c35.346 0 64 28.654 64 64.001 0 35.345-28.654 63.999-64 63.999s-64-28.654-64-63.999c0-35.347 28.654-64.001 64-64.001z" fill="#45B39C"/><path d="M33 73h62c1.657 0 3 1.342 3 3v13c0 1.656-1.343 3-3 3h-62c-1.657 0-3-1.344-3-3v-13c0-1.658 1.343-3 3-3z" fill="#EFC84A"/><path d="M57.104 31c.604-2.282 3.236-4 6.392-4s5.788 1.718 6.392 4h2.104c-.336-3.355-4.007-6-8.496-6s-8.16 2.645-8.496 6h2.104z" fill="#4A606E"/><path d="M82 31h-36c-6.627 0-12 5.373-12 12v48c0 3.312 2.687 6 6 6h48c3.313 0 6-2.688 6-6v-48c0-6.627-5.373-12-12-12z" fill="#334D5D"/><path d="M34 83h60v2h-60v-2z" fill="#E27C3F"/><path d="M34 91c0 3.312 2.687 6 6 6h48c3.313 0 6-2.688 6-6v-6h-60v6z" fill="#4A606E"/><path d="M82 31h-36c-6.627 0-12 5.373-12 12v4c0 6.628 5.373 12 12 12h36c6.627 0 12-5.372 12-12v-4c0-6.627-5.373-12-12-12z" fill="#EFC84A"/><path d="M52 30h-3c-.553 0-1 .448-1 1v44s1.855 3 2.433 3c.756 0 2.567-3 2.567-3v-44c0-.552-.447-1-1-1zm27 0h-3c-.553 0-1 .448-1 1v44s1.855 3 2.433 3c.756 0 2.567-3 2.567-3v-44c0-.552-.447-1-1-1z" fill="#E27C3F"/><path d="M47 71h7v-7h-7v7zm2-5h3v3h-3v-3zm25-2v7h7v-7h-7zm5 5h-3v-3h3v3z" fill="#EBEEEE"/></svg>