<?xml version="1.0" ?><!DOCTYPE svg  PUBLIC '-//W3C//DTD SVG 1.1//EN'  'http://www.w3.org/Graphics/SVG/1.1/DTD/svg11.dtd'><svg enable-background="new 0 0 128 128" height="128px" id="Слой_1" version="1.1" viewBox="0 0 128 128" width="128px" xml:space="preserve" xmlns="http://www.w3.org/2000/svg" xmlns:xlink="http://www.w3.org/1999/xlink"><path d="M64,0c35.348,0,64,28.653,64,64c0,35.345-28.652,64-64,64C28.654,128,0,99.346,0,64C0,28.654,28.654,0,64,0z  " fill="#EFC84A"/><g><g><defs><circle cx="64" cy="64" id="SVGID_1_" r="64"/></defs><clipPath id="SVGID_2_"><use overflow="visible" xlink:href="#SVGID_1_"/></clipPath><rect clip-path="url(#SVGID_2_)" fill="#3E4E5C" height="36" width="133" x="-2" y="94"/></g></g><path d="M34,69L7,94h27V69z" fill="#D7B442"/><path d="M35,69h58c1.104,0,2,0.895,2,2v26c0,1.104-0.896,2-2,2H35c-1.104,0-2-0.896-2-2V71  C33,69.895,33.896,69,35,69z" fill="#DF5A48"/><path d="M61,64h6v3h-6V64z" fill="#DFE1E2"/><path d="M59,67h10v2H59V67z" fill="#EBEDEE"/><path d="M41,32h46c1.104,0,2,0.896,2,2v28c0,1.104-0.896,2-2,2H41c-1.104,0-2-0.896-2-2V34  C39,32.895,39.896,32,41,32z" fill="#EBEEEE"/><path d="M43,35h42c0.553,0,1,0.448,1,1v24c0,0.553-0.447,1-1,1H43c-0.553,0-1-0.447-1-1V36  C42,35.448,42.447,35,43,35z" fill="#334D5D"/><g><path d="M91,72H66c-0.553,0-1,0.447-1,1v22c0,0.553,0.447,1,1,1h25c0.553,0,1-0.447,1-1V73   C92,72.447,91.553,72,91,72z M87,90H70c-0.553,0-1-0.447-1-1s0.447-1,1-1h17c0.553,0,1,0.447,1,1S87.553,90,87,90z M87,85H70   c-0.553,0-1-0.447-1-1s0.447-1,1-1h17c0.553,0,1,0.447,1,1S87.553,85,87,85z M87,80H70c-0.553,0-1-0.447-1-1s0.447-1,1-1h17   c0.553,0,1,0.447,1,1S87.553,80,87,80z M62,72H37c-0.553,0-1,0.447-1,1v22c0,0.553,0.447,1,1,1h25c0.553,0,1-0.447,1-1V73   C63,72.447,62.553,72,62,72z M58,90H41c-0.553,0-1-0.447-1-1s0.447-1,1-1h17c0.553,0,1,0.447,1,1S58.553,90,58,90z M58,85H41   c-0.553,0-1-0.447-1-1s0.447-1,1-1h17c0.553,0,1,0.447,1,1S58.553,85,58,85z M58,80H41c-0.553,0-1-0.447-1-1s0.447-1,1-1h17   c0.553,0,1,0.447,1,1S58.553,80,58,80z" fill="#E46C5D"/></g></svg>