<svg width="447" height="447" xmlns="http://www.w3.org/2000/svg" xmlns:xlink="http://www.w3.org/1999/xlink" xml:space="preserve" overflow="hidden"><defs><filter id="fx0" x="-10%" y="-10%" width="120%" height="120%" filterUnits="userSpaceOnUse" primitiveUnits="userSpaceOnUse"><feComponentTransfer color-interpolation-filters="sRGB"><feFuncR type="discrete" tableValues="0 0"/><feFuncG type="discrete" tableValues="0 0"/><feFuncB type="discrete" tableValues="0 0"/><feFuncA type="linear" slope="0.4" intercept="0"/></feComponentTransfer><feGaussianBlur stdDeviation="1.77778 1.77778"/></filter><clipPath id="clip1"><rect x="720" y="108" width="447" height="447"/></clipPath><clipPath id="clip2"><rect x="60" y="60" width="329" height="329"/></clipPath></defs><g clip-path="url(#clip1)" transform="translate(-720 -108)"><g clip-path="url(#clip2)" filter="url(#fx0)" transform="translate(719 107)"><g><g><g><g><path d="M97.4534 70.2659 70.2659 70.2659 70.2659 378.391 378.391 378.391 378.391 351.203 97.4534 351.203Z" stroke="#F1C512" stroke-width="4.53123" fill="#193A5D"/><path d="M124.641 165.422 174.485 165.422 174.485 324.016 124.641 324.016Z" stroke="#F1C512" stroke-width="4.53123" fill="#193A5D"/><path d="M192.61 70.2659 242.453 70.2659 242.453 324.016 192.61 324.016Z" stroke="#F1C512" stroke-width="4.53123" fill="#193A5D"/><path d="M260.578 165.422 310.422 165.422 310.422 324.016 260.578 324.016Z" stroke="#F1C512" stroke-width="4.53123" fill="#193A5D"/><path d="M328.547 242.453 378.391 242.453 378.391 324.016 328.547 324.016Z" stroke="#F1C512" stroke-width="4.53123" fill="#193A5D"/></g></g></g></g></g><g><g><g><path d="M813.625 174.438 786.438 174.438 786.438 482.562 1094.56 482.562 1094.56 455.375 813.625 455.375Z" stroke="#F1C512" stroke-width="4.53123" fill="#193A5D"/><path d="M840.812 269.594 890.656 269.594 890.656 428.188 840.812 428.188Z" stroke="#F1C512" stroke-width="4.53123" fill="#193A5D"/><path d="M908.781 174.438 958.625 174.438 958.625 428.188 908.781 428.188Z" stroke="#F1C512" stroke-width="4.53123" fill="#193A5D"/><path d="M976.75 269.594 1026.59 269.594 1026.59 428.188 976.75 428.188Z" stroke="#F1C512" stroke-width="4.53123" fill="#193A5D"/><path d="M1044.72 346.625 1094.56 346.625 1094.56 428.188 1044.72 428.188Z" stroke="#F1C512" stroke-width="4.53123" fill="#193A5D"/></g></g></g></g></svg>